# xmcd
#
# Track frame offsets: 
#        182
#        2207
#        12457
#        81707
#        126607
#
# Disc length: 3199 seconds
#
# Revision: 2
# Processed by: cddbd v1.5.2PL0 Copyright (c) Steve Scherf et al.
# Submitted via: ExactAudioCopy v0.95b4
#
DISCID=430c7d05
DTITLE=Engelbert Humperdinck - Hänsel und Gretel (Schweriner Blechbläs
DTITLE=er-Collegium)
DYEAR=1991
DGENRE=Kinder
TTITLE0=Fanfare
TTITLE1=Vorspiel
TTITLE2=Daheim
TTITLE3=Im Walde
TTITLE4=Das Knusperhäuschen
EXTD=Dirigent: Stefan Malzew\nErzähler: Elmar Gusch\nverbindende Verse
EXTD=von Adelheid Wette YEAR: 1991
EXTT0=
EXTT1=
EXTT2=
EXTT3=
EXTT4=
PLAYORDER=
